<svg id="Capa_1" data-name="Capa 1" xmlns="http://www.w3.org/2000/svg" xmlns:xlink="http://www.w3.org/1999/xlink" viewBox="0 0 250 59.59"><defs><style>.cls-1{fill:url(#Degradado_sin_nombre_6);}.cls-2{fill:url(#Degradado_sin_nombre_6-2);}.cls-3{font-size:29.86px;font-family:BlissPro-Medium, Bliss Pro;font-weight:500;}.cls-3,.cls-6{fill:#120c44;}.cls-4{letter-spacing:-0.05em;}.cls-5{letter-spacing:0.05em;}.cls-6{font-size:14.68px;font-family:BlissPro, Bliss Pro;}.cls-7{fill:none;}</style><linearGradient id="Degradado_sin_nombre_6" x1="59.59" y1="20.07" x2="43.01" y2="48.79" gradientUnits="userSpaceOnUse"><stop offset="0" stop-color="#120c44"/><stop offset="0.1" stop-color="#13174e"/><stop offset="1" stop-color="#197fab"/></linearGradient><linearGradient id="Degradado_sin_nombre_6-2" x1="49.82" y1="15.01" x2="33.23" y2="43.73" xlink:href="#Degradado_sin_nombre_6"/></defs><polyline class="cls-1" points="60.86 39.46 60.87 39.47 60.02 40.24 58.22 41.89 58.2 41.86 52.41 47.07 34.34 26.95 30.44 30.24 51.5 53.69 55.3 50.28 55.28 50.26 76.39 31.31 73.52 28.11 64.67 36.06"/><polygon class="cls-2" points="34.07 22.52 34.08 22.55 40.5 16.79 58.54 36.87 62.34 33.46 41.41 10.16 37.61 13.57 37.63 13.59 16.52 32.55 19.39 35.74 27.37 28.57 27.35 28.55 34.07 22.52"/><text class="cls-3" transform="translate(83.84 31.01)"><tspan class="cls-4">T</tspan><tspan x="14.13" y="0">ec</tspan><tspan class="cls-5" x="41.69" y="0">n</tspan><tspan x="58.92" y="0">o-</tspan><tspan class="cls-4" x="85.68" y="0">T</tspan><tspan x="99.8" y="0">ech</tspan></text><text class="cls-6" transform="translate(100.65 49.25)">Aislantes térmicos</text><rect class="cls-7" width="250" height="59.59"/></svg>